<?xml version="1.0" encoding="utf-8" ?>
<svg baseProfile="tiny" height="100%" version="1.2" width="100%" xmlns="http://www.w3.org/2000/svg" xmlns:ev="http://www.w3.org/2001/xml-events" xmlns:xlink="http://www.w3.org/1999/xlink"><defs /><path d="M182,340 L184,349 L220,355 L212,338 Z" fill="black" /><path d="M461,343 L461,350 L476,353 L477,339 Z" fill="black" /><path d="M414,326 L399,330 L404,345 L415,338 Z" fill="black" /><path d="M141,329 L127,332 L127,346 L139,336 Z" fill="black" /><path d="M464,272 L429,357 L444,355 L454,325 L477,321 Z" fill="black" /><path d="M190,274 L150,356 L181,323 L214,328 Z" fill="black" /><path d="M479,250 L478,265 Z" fill="black" /><path d="M463,235 L447,242 L453,258 L465,245 Z" fill="black" /><path d="M188,236 L175,244 L173,254 L182,255 L188,248 Z" fill="black" /><path d="M213,173 Z" fill="black" /><path d="M238,145 L224,150 L228,164 L240,157 Z" fill="black" /><path d="M3,92 L-2,145 L38,148 Z" fill="black" /><path d="M263,82 L259,82 Z" fill="black" /><path d="M286,53 L270,63 L279,72 L289,62 Z" fill="black" /><path d="M10,54 L0,58 L2,72 L12,66 Z" fill="black" /><path d="M468,48 L455,84 L476,114 Z" fill="black" /><path d="M1,33 L0,40 L5,35 Z" fill="black" /><path d="M478,-2 L239,356 Z" fill="black" /><path d="M252,353 L253,350 L254,351 L252,355 Z" fill="black" /><path d="M275,324 L277,339 L265,347 L263,332 Z" fill="black" /><path d="M327,233 L327,250 L315,256 L311,243 Z" fill="black" /><path d="M376,143 L379,154 L367,164 L360,150 Z" fill="black" /><path d="M423,53 L428,64 L413,75 L408,63 Z" fill="black" /><path d="M282,0 L286,23 L298,27 L298,-1 Z" fill="black" /><path d="M257,2 L264,-1 L270,4 L268,-1 Z" fill="black" /><path d="M229,1 L243,23 L262,23 L259,15 L247,12 L247,1 Z" fill="black" /><path d="M271,27 L-2,358 Z" fill="black" /><path d="M24,259 L26,260 L24,260 L25,264 Z" fill="black" /><path d="M53,237 L53,251 L40,256 L37,240 Z" fill="black" /><path d="M72,169 L76,171 L76,168 L74,171 Z" fill="black" /><path d="M100,144 L104,154 L89,165 L83,155 Z" fill="black" /><path d="M148,53 L150,66 L138,76 L132,58 Z" fill="black" /><path d="M7,2 L10,20 L20,25 L22,0 Z" fill="black" /></svg>