<?xml version="1.0" encoding="utf-8" ?>
<svg baseProfile="tiny" height="100%" version="1.2" width="100%" xmlns="http://www.w3.org/2000/svg" xmlns:ev="http://www.w3.org/2001/xml-events" xmlns:xlink="http://www.w3.org/1999/xlink"><defs /><path d="M184,342 L183,346 L185,349 L198,350 L202,352 L206,357 L222,357 L217,343 L210,338 L188,338 Z" fill="black" /><path d="M460,341 L459,347 L461,349 L464,349 L465,350 L473,350 L477,352 L477,337 L475,338 L474,337 L473,338 L471,337 L470,338 L469,337 L467,338 L466,337 L463,338 Z" fill="black" /><path d="M414,327 L408,327 L401,331 L400,333 L400,339 L402,344 L404,346 L408,346 L415,339 L416,334 L417,333 L416,332 L416,329 Z" fill="black" /><path d="M139,327 L133,327 L132,328 L130,328 L125,332 L125,334 L124,335 L125,341 L129,346 L134,345 L140,338 L141,336 L141,330 Z" fill="black" /><path d="M463,273 L455,277 L450,308 L434,323 L427,344 L428,357 L444,357 L443,345 L452,325 L462,321 L477,322 L477,302 Z" fill="black" /><path d="M188,273 L180,276 L174,309 L158,324 L151,347 L152,357 L168,357 L169,339 L182,322 L204,322 L216,329 L217,320 L202,304 Z" fill="black" /><path d="M477,251 L477,253 L476,254 L476,263 L477,264 L477,267 Z" fill="black" /><path d="M463,236 L459,236 L458,237 L453,238 L449,243 L449,248 L450,249 L450,251 L451,253 L455,256 L456,255 L458,255 L465,247 L465,245 L466,244 L466,239 Z" fill="black" /><path d="M187,236 L180,237 L176,239 L174,242 L174,249 L175,250 L175,252 L180,256 L182,255 L190,246 L190,238 Z" fill="black" /><path d="M212,172 Z" fill="black" /><path d="M236,145 L235,146 L230,146 L226,148 L223,152 L223,157 L224,158 L224,160 L228,165 L232,164 L239,156 L240,149 L239,147 Z" fill="black" /><path d="M5,92 L2,99 L0,144 L6,140 L25,140 L39,148 L38,134 L25,122 L13,93 Z" fill="black" /><path d="M261,80 L261,81 Z" fill="black" /><path d="M286,54 L285,55 L283,54 L282,55 L279,55 L275,57 L272,62 L273,68 L275,72 L278,74 L281,73 L287,67 L289,63 L289,57 Z" fill="black" /><path d="M10,54 L8,55 L4,55 L0,57 L0,72 L2,74 L6,73 L13,65 L13,56 Z" fill="black" /><path d="M470,50 L463,53 L457,63 L454,84 L466,111 L471,115 L477,115 L477,104 L471,98 L471,93 L477,90 L477,78 L471,78 L468,75 L469,69 L477,64 L477,50 Z" fill="black" /><path d="M0,33 L0,38 L1,38 L2,37 L6,37 L5,37 L4,36 L3,36 Z" fill="black" /><path d="M477,0 L352,0 L418,37 L384,117 L329,2 L300,84 L369,128 L285,207 L279,94 L251,176 L319,219 L236,298 L230,184 L237,357 L321,272 L306,357 L388,352 L339,248 L376,182 L359,277 L425,296 L457,218 L387,163 L425,91 L410,190 L475,204 Z" fill="black" /><path d="M250,352 L251,351 L252,352 L251,353 Z" fill="black" /><path d="M277,326 L280,330 L280,334 L278,339 L273,345 L270,347 L266,347 L264,345 L261,338 L262,332 L267,327 L270,326 Z" fill="black" /><path d="M326,235 L329,239 L329,244 L327,249 L320,256 L315,256 L311,250 L311,247 L310,246 L311,241 L317,236 L320,235 Z" fill="black" /><path d="M374,144 L376,145 L379,149 L378,155 L376,159 L370,165 L366,166 L363,164 L360,158 L360,152 L364,147 L371,144 L372,145 Z" fill="black" /><path d="M423,53 L425,54 L428,58 L427,65 L418,75 L415,75 L410,69 L409,61 L410,59 L415,55 L421,53 L422,54 Z" fill="black" /><path d="M283,0 L285,15 L288,23 L290,25 L296,25 L299,20 L299,14 L298,13 L298,8 L296,0 Z" fill="black" /><path d="M259,0 L263,0 L264,1 L265,1 L267,3 L268,3 L268,1 L267,0 Z" fill="black" /><path d="M230,0 L239,19 L243,23 L256,25 L260,23 L260,17 L258,14 L253,13 L252,14 L246,10 L245,2 L247,0 Z" fill="black" /><path d="M273,28 L77,0 L143,37 L59,116 L53,3 L25,86 L94,128 L60,208 L7,162 L0,357 L45,272 L31,357 L113,353 L90,187 L147,298 L140,94 L136,193 L197,207 L232,128 L168,51 L199,0 L182,95 L246,116 Z" fill="black" /><path d="M24,261 L25,260 L26,261 L25,262 Z" fill="black" /><path d="M52,236 L54,239 L54,243 L51,250 L46,255 L40,256 L37,253 L35,247 L36,241 L40,237 L45,235 L50,235 Z" fill="black" /><path d="M73,170 L74,169 L75,170 L74,171 Z" fill="black" /><path d="M98,144 L103,148 L103,154 L99,161 L93,166 L90,166 L86,162 L84,153 L90,146 L96,144 L97,145 Z" fill="black" /><path d="M150,54 L152,57 L152,64 L145,73 L142,75 L139,75 L136,72 L134,68 L134,60 L141,54 L145,54 L146,53 L147,54 Z" fill="black" /><path d="M8,0 L9,12 L12,22 L14,25 L21,25 L24,18 L21,1 L20,0 Z" fill="black" /></svg>