<?xml version="1.0" encoding="utf-8" ?>
<svg baseProfile="tiny" height="100%" version="1.2" width="100%" xmlns="http://www.w3.org/2000/svg" xmlns:ev="http://www.w3.org/2001/xml-events" xmlns:xlink="http://www.w3.org/1999/xlink"><defs /><path d="M188,338 L184,342 L184,345 L183,346 L184,347 L184,348 L185,349 L189,349 L190,350 L198,350 L199,351 L200,351 L201,352 L202,352 L206,356 L206,357 L222,357 L221,356 L221,352 L220,351 L220,349 L219,348 L219,347 L218,346 L218,345 L217,344 L217,343 L214,340 L213,340 L212,339 L211,339 L210,338 Z" fill="black" /><path d="M466,337 L465,338 L463,338 L460,341 L460,344 L459,345 L459,347 L461,349 L464,349 L465,350 L473,350 L474,351 L476,351 L477,352 L477,337 L476,337 L475,338 L474,337 L473,338 L472,338 L471,337 L470,338 L469,337 L468,338 L467,338 Z" fill="black" /><path d="M408,327 L407,328 L406,328 L405,329 L404,329 L403,330 L402,330 L401,331 L401,332 L400,333 L400,339 L401,340 L401,342 L402,343 L402,344 L404,346 L408,346 L415,339 L415,338 L416,337 L416,334 L417,333 L416,332 L416,329 L414,327 Z" fill="black" /><path d="M133,327 L132,328 L130,328 L129,329 L128,329 L125,332 L125,334 L124,335 L124,337 L125,338 L125,341 L126,342 L126,343 L129,346 L132,346 L133,345 L134,345 L138,341 L138,340 L140,338 L140,337 L141,336 L141,330 L140,329 L140,328 L139,327 Z" fill="black" /><path d="M458,273 L456,275 L456,276 L455,277 L455,282 L454,283 L455,284 L454,285 L455,286 L454,287 L455,288 L454,289 L454,298 L453,299 L453,302 L452,303 L452,304 L451,305 L451,306 L450,307 L450,308 L446,312 L444,312 L443,313 L442,313 L436,319 L436,320 L435,321 L435,322 L434,323 L434,325 L433,326 L433,328 L432,329 L432,331 L431,332 L431,334 L430,335 L430,336 L429,337 L429,340 L428,341 L428,343 L427,344 L427,355 L428,356 L428,357 L444,357 L443,356 L443,345 L444,344 L444,341 L445,340 L445,338 L446,337 L446,335 L447,334 L447,333 L448,332 L448,331 L449,330 L449,329 L451,327 L451,326 L452,325 L453,325 L455,323 L456,323 L457,322 L461,322 L462,321 L471,321 L472,322 L473,322 L474,321 L475,322 L477,322 L477,302 L476,301 L476,300 L475,299 L475,298 L474,297 L474,296 L473,295 L473,293 L472,292 L472,291 L471,290 L471,288 L470,287 L470,286 L469,285 L469,283 L468,282 L468,280 L467,279 L467,278 L466,277 L466,276 L463,273 Z" fill="black" /><path d="M183,273 L180,276 L180,278 L179,279 L179,294 L178,295 L178,300 L177,301 L177,303 L176,304 L176,305 L175,306 L175,307 L174,308 L174,309 L172,311 L171,311 L170,312 L169,312 L168,313 L167,313 L166,314 L165,314 L161,318 L161,319 L160,320 L160,321 L159,322 L159,323 L158,324 L158,326 L157,327 L157,329 L156,330 L156,332 L155,333 L155,335 L154,336 L154,338 L153,339 L153,341 L152,342 L152,346 L151,347 L151,350 L152,351 L151,352 L152,353 L152,357 L168,357 L168,355 L167,354 L167,348 L168,347 L168,343 L169,342 L169,339 L170,338 L170,337 L171,336 L171,334 L172,333 L172,332 L173,331 L173,330 L174,329 L174,328 L178,324 L179,324 L180,323 L181,323 L182,322 L185,322 L186,321 L187,321 L188,322 L189,322 L190,321 L198,321 L199,322 L204,322 L205,323 L207,323 L208,324 L209,324 L210,325 L211,325 L215,329 L215,330 L216,329 L216,326 L217,325 L217,320 L216,319 L216,318 L215,317 L215,316 L213,314 L212,314 L210,312 L209,312 L204,307 L204,306 L202,304 L202,303 L201,302 L201,301 L200,300 L200,299 L199,298 L199,297 L198,296 L198,295 L197,294 L197,292 L196,291 L196,289 L195,288 L195,287 L194,286 L194,284 L193,283 L193,282 L192,281 L192,279 L191,278 L191,277 L190,276 L190,275 L188,273 Z" fill="black" /><path d="M477,251 L477,253 L476,254 L476,263 L477,264 L477,267 Z" fill="black" /><path d="M459,236 L458,237 L456,237 L455,238 L453,238 L450,241 L450,242 L449,243 L449,248 L450,249 L450,251 L451,252 L451,253 L453,255 L454,255 L455,256 L456,255 L458,255 L463,250 L463,249 L465,247 L465,245 L466,244 L466,239 L463,236 Z" fill="black" /><path d="M183,236 L182,237 L180,237 L179,238 L178,238 L177,239 L176,239 L175,240 L175,241 L174,242 L174,249 L175,250 L175,252 L178,255 L179,255 L180,256 L181,255 L182,255 L189,248 L189,247 L190,246 L190,238 L189,237 L188,237 L187,236 Z" fill="black" /><path d="M212,172 Z" fill="black" /><path d="M236,145 L235,146 L230,146 L229,147 L228,147 L227,148 L226,148 L224,150 L224,151 L223,152 L223,157 L224,158 L224,160 L225,161 L225,162 L228,165 L230,165 L231,164 L232,164 L238,158 L238,157 L239,156 L239,154 L240,153 L240,149 L239,148 L239,147 L238,146 L237,146 Z" fill="black" /><path d="M7,91 L6,92 L5,92 L4,93 L4,94 L3,95 L3,98 L2,99 L2,114 L1,115 L1,119 L0,120 L0,144 L2,142 L3,142 L4,141 L5,141 L6,140 L25,140 L26,141 L29,141 L30,142 L32,142 L34,144 L35,144 L38,147 L38,148 L39,148 L39,146 L40,145 L40,138 L39,137 L39,136 L38,135 L38,134 L37,134 L34,131 L33,131 L27,125 L27,124 L25,122 L25,121 L24,120 L24,119 L23,118 L23,117 L22,116 L22,115 L21,114 L21,112 L20,111 L20,110 L19,109 L19,107 L18,106 L18,105 L17,104 L17,102 L16,101 L16,99 L15,98 L15,97 L14,96 L14,95 L13,94 L13,93 L12,92 L11,92 L10,91 Z" fill="black" /><path d="M261,80 L261,81 Z" fill="black" /><path d="M283,54 L282,55 L279,55 L278,56 L277,56 L276,57 L275,57 L274,58 L274,59 L273,60 L273,61 L272,62 L272,65 L273,66 L273,68 L274,69 L274,70 L275,71 L275,72 L276,73 L277,73 L278,74 L279,74 L280,73 L281,73 L287,67 L287,66 L288,65 L288,64 L289,63 L289,57 L286,54 L285,55 L284,55 Z" fill="black" /><path d="M9,54 L8,55 L4,55 L3,56 L2,56 L1,57 L0,57 L0,72 L2,74 L4,74 L5,73 L6,73 L11,68 L11,67 L13,65 L13,56 L12,55 L11,55 L10,54 Z" fill="black" /><path d="M470,50 L469,51 L466,51 L464,53 L463,53 L462,54 L462,55 L460,57 L460,58 L459,59 L459,60 L458,61 L458,62 L457,63 L457,65 L456,66 L456,68 L455,69 L455,72 L454,73 L454,84 L455,85 L455,88 L456,89 L456,91 L457,92 L457,93 L458,94 L458,96 L459,97 L459,98 L460,99 L460,100 L461,101 L461,102 L462,103 L462,104 L463,105 L463,106 L464,107 L464,108 L466,110 L466,111 L469,114 L470,114 L471,115 L477,115 L477,104 L475,104 L472,101 L472,99 L471,98 L471,93 L474,90 L477,90 L477,78 L471,78 L468,75 L468,71 L469,70 L469,69 L473,65 L474,65 L475,64 L477,64 L477,50 Z" fill="black" /><path d="M0,33 L0,38 L1,38 L2,37 L6,37 L5,37 L4,36 L3,36 Z" fill="black" /><path d="M335,0 L334,1 L330,1 L329,2 L329,3 L328,4 L328,6 L327,7 L327,22 L326,23 L326,28 L325,29 L325,31 L324,32 L324,33 L323,34 L323,35 L319,39 L318,39 L317,40 L316,40 L315,41 L314,41 L308,47 L308,48 L307,49 L307,51 L306,52 L306,54 L305,55 L305,57 L304,58 L304,60 L303,61 L303,62 L302,63 L302,65 L301,66 L301,69 L300,70 L300,73 L299,74 L299,78 L300,79 L300,84 L301,85 L301,87 L302,88 L302,90 L303,91 L303,92 L304,93 L304,95 L305,96 L305,97 L306,98 L306,99 L307,100 L307,101 L308,102 L308,103 L309,104 L309,105 L311,107 L311,108 L312,109 L312,110 L314,112 L314,113 L315,114 L315,115 L317,117 L317,118 L319,120 L319,121 L321,123 L321,124 L324,127 L325,127 L326,128 L332,128 L333,129 L342,129 L343,128 L344,128 L345,129 L346,129 L347,128 L348,128 L349,129 L351,129 L352,128 L355,128 L356,127 L357,127 L360,124 L360,122 L362,120 L363,121 L363,122 L364,123 L364,124 L367,127 L368,127 L369,128 L368,129 L367,129 L366,130 L364,130 L363,131 L362,131 L361,132 L360,132 L359,133 L358,133 L357,134 L356,134 L354,136 L353,136 L352,137 L351,137 L350,138 L349,138 L348,139 L347,139 L346,140 L343,140 L342,141 L341,141 L340,142 L338,142 L337,143 L336,143 L335,144 L334,144 L333,145 L332,145 L331,146 L331,147 L330,148 L330,152 L332,154 L333,154 L334,155 L339,155 L340,156 L343,156 L347,160 L347,161 L348,162 L348,163 L349,164 L349,167 L350,168 L350,170 L349,171 L348,170 L348,169 L347,168 L346,168 L345,167 L341,167 L340,168 L339,168 L337,170 L337,171 L336,172 L336,182 L337,183 L337,187 L338,188 L338,193 L339,194 L339,204 L335,208 L330,208 L329,207 L328,207 L327,206 L327,205 L326,204 L326,203 L325,202 L325,200 L324,199 L324,196 L323,195 L323,190 L322,189 L322,183 L321,182 L321,177 L320,176 L320,172 L319,171 L319,169 L318,168 L318,166 L317,165 L317,164 L316,163 L316,162 L313,159 L312,159 L310,157 L305,157 L304,156 L288,156 L287,157 L286,157 L284,159 L284,160 L283,161 L283,163 L282,164 L282,166 L283,167 L284,167 L285,168 L292,168 L293,169 L297,169 L298,170 L299,170 L300,171 L301,171 L305,175 L305,176 L306,177 L306,178 L307,179 L307,181 L308,182 L308,185 L307,186 L305,184 L304,184 L303,183 L301,183 L300,182 L296,182 L295,181 L293,181 L292,182 L291,181 L289,181 L288,182 L287,182 L285,184 L285,188 L286,189 L286,191 L287,192 L287,193 L288,193 L289,194 L296,194 L297,195 L298,195 L299,196 L299,197 L300,198 L300,205 L299,206 L298,206 L297,207 L285,207 L284,206 L283,206 L282,205 L281,205 L280,204 L280,203 L277,200 L277,199 L276,198 L276,197 L274,195 L274,194 L273,193 L273,192 L272,191 L272,190 L271,189 L271,188 L270,187 L270,185 L269,184 L269,182 L268,181 L268,179 L267,178 L267,175 L266,174 L266,164 L267,163 L267,160 L268,159 L268,157 L269,156 L269,154 L270,153 L270,152 L271,151 L271,150 L272,149 L272,148 L273,147 L273,146 L276,143 L277,143 L279,141 L281,141 L282,140 L300,140 L301,141 L305,141 L306,142 L307,142 L308,143 L309,143 L310,144 L311,144 L313,146 L313,147 L314,148 L314,149 L314,148 L315,147 L315,142 L316,141 L316,140 L315,139 L315,136 L311,132 L310,132 L308,130 L307,130 L303,126 L303,125 L302,124 L302,123 L300,121 L300,120 L299,119 L299,118 L298,117 L298,116 L297,115 L297,113 L296,112 L296,111 L295,110 L295,108 L294,107 L294,106 L293,105 L293,103 L292,102 L292,100 L291,99 L291,98 L290,97 L290,96 L289,95 L289,94 L286,91 L282,91 L279,94 L279,95 L278,96 L278,109 L277,110 L277,117 L276,118 L276,121 L275,122 L275,123 L274,124 L274,125 L272,127 L272,128 L270,130 L268,130 L266,132 L265,132 L263,134 L262,134 L262,135 L259,138 L259,139 L258,140 L258,141 L257,142 L257,144 L256,145 L256,147 L255,148 L255,150 L254,151 L254,153 L253,154 L253,156 L252,157 L252,159 L251,160 L251,163 L250,164 L250,171 L251,172 L251,176 L252,177 L252,179 L253,180 L253,182 L254,183 L254,184 L255,185 L255,186 L256,187 L256,189 L257,190 L257,191 L259,193 L259,194 L260,195 L260,196 L261,197 L261,198 L263,200 L263,201 L264,202 L264,203 L266,205 L266,206 L267,207 L267,208 L269,210 L269,211 L271,213 L271,214 L275,218 L276,218 L277,219 L306,219 L307,218 L308,218 L311,215 L311,211 L312,210 L314,212 L314,214 L319,219 L318,220 L316,220 L315,221 L314,221 L313,222 L312,222 L311,223 L309,223 L307,225 L306,225 L304,227 L303,227 L302,228 L301,228 L300,229 L298,229 L297,230 L295,230 L294,231 L293,231 L292,232 L290,232 L289,233 L287,233 L285,235 L284,235 L283,236 L282,236 L281,237 L281,239 L280,240 L280,241 L281,242 L281,243 L283,245 L285,245 L286,246 L292,246 L293,247 L294,247 L298,251 L298,253 L299,254 L299,255 L300,256 L300,259 L301,260 L301,261 L300,262 L298,260 L298,259 L297,259 L296,258 L290,258 L287,261 L287,263 L286,264 L286,270 L287,271 L287,275 L288,276 L288,280 L289,281 L289,287 L290,288 L290,292 L289,293 L289,295 L285,299 L284,298 L283,299 L282,299 L281,298 L279,298 L277,296 L277,295 L276,294 L276,292 L275,291 L275,289 L274,288 L274,284 L273,283 L273,277 L272,276 L272,271 L271,270 L271,265 L270,264 L270,261 L269,260 L269,258 L268,257 L268,255 L266,253 L266,252 L263,249 L262,249 L261,248 L259,248 L258,247 L238,247 L237,248 L236,248 L234,250 L234,252 L233,253 L233,257 L234,258 L236,258 L237,259 L246,259 L247,260 L249,260 L251,262 L252,262 L256,266 L256,268 L257,269 L257,270 L258,271 L258,273 L259,274 L259,276 L258,277 L255,274 L253,274 L252,273 L248,273 L247,272 L238,272 L235,275 L235,278 L236,279 L236,280 L237,281 L237,282 L238,283 L238,284 L239,284 L240,285 L247,285 L250,288 L250,290 L251,291 L251,294 L250,295 L250,296 L249,297 L248,297 L247,298 L236,298 L235,297 L234,297 L233,296 L232,296 L229,293 L229,292 L227,290 L227,289 L226,288 L226,287 L224,285 L224,284 L223,283 L223,282 L222,281 L222,279 L221,278 L221,277 L220,276 L220,274 L219,273 L219,271 L218,270 L218,267 L217,266 L217,260 L216,259 L217,258 L217,253 L218,252 L218,249 L219,248 L219,247 L220,246 L220,244 L221,243 L221,242 L222,241 L222,240 L223,239 L223,238 L225,236 L225,235 L226,234 L227,234 L229,232 L231,232 L232,231 L252,231 L253,232 L256,232 L257,233 L258,233 L259,234 L260,234 L265,239 L265,237 L266,236 L266,228 L265,227 L265,226 L262,223 L261,223 L259,221 L258,221 L254,217 L254,216 L252,214 L252,213 L251,212 L251,211 L249,209 L249,207 L248,206 L248,205 L247,204 L247,203 L246,202 L246,200 L245,199 L245,198 L244,197 L244,195 L243,194 L243,192 L242,191 L242,190 L241,189 L241,187 L240,186 L240,185 L237,182 L233,182 L232,183 L231,183 L230,184 L230,185 L229,186 L229,192 L228,193 L229,194 L228,195 L228,197 L229,198 L228,199 L228,207 L227,208 L227,211 L226,212 L226,214 L224,216 L224,217 L220,221 L218,221 L216,223 L215,223 L210,228 L210,229 L208,231 L208,233 L207,234 L207,236 L206,237 L206,239 L205,240 L205,242 L204,243 L204,245 L203,246 L203,248 L202,249 L202,252 L201,253 L201,257 L200,258 L201,259 L201,265 L202,266 L202,268 L203,269 L203,271 L204,272 L204,274 L205,275 L205,276 L206,277 L206,278 L207,279 L207,281 L209,283 L209,284 L210,285 L210,286 L211,287 L211,288 L213,290 L213,291 L214,292 L214,293 L216,295 L216,296 L217,297 L217,298 L219,300 L219,301 L221,303 L221,304 L226,309 L227,309 L228,310 L256,310 L257,309 L258,309 L261,306 L261,305 L262,304 L262,301 L263,300 L264,301 L264,303 L265,304 L265,305 L268,308 L269,308 L270,309 L270,310 L269,311 L266,311 L265,312 L264,312 L263,313 L262,313 L261,314 L260,314 L259,315 L258,315 L257,316 L256,316 L254,318 L253,318 L252,319 L251,319 L250,320 L249,320 L248,321 L245,321 L244,322 L243,322 L242,323 L240,323 L239,324 L238,324 L237,325 L236,325 L235,326 L234,326 L232,328 L232,329 L231,330 L231,333 L233,335 L234,335 L235,336 L237,336 L238,337 L244,337 L248,341 L248,342 L249,343 L249,344 L250,345 L250,347 L251,348 L251,351 L250,352 L249,351 L249,350 L248,349 L247,349 L246,348 L245,349 L244,348 L243,348 L242,349 L240,349 L238,351 L238,353 L237,354 L237,357 L289,357 L289,354 L288,353 L288,345 L289,344 L289,341 L290,340 L290,338 L291,337 L291,335 L292,334 L292,333 L293,332 L293,329 L294,328 L294,327 L295,326 L295,324 L296,323 L296,322 L297,321 L297,320 L304,313 L305,313 L306,312 L307,312 L312,307 L312,306 L313,305 L313,303 L314,302 L314,300 L315,299 L315,292 L316,291 L316,278 L317,277 L317,275 L319,273 L320,273 L321,272 L326,272 L328,274 L328,275 L329,276 L329,277 L330,278 L330,279 L331,280 L331,281 L332,282 L332,284 L333,285 L333,287 L334,288 L334,289 L335,290 L335,292 L336,293 L336,294 L337,295 L337,296 L338,297 L338,298 L339,299 L339,300 L340,301 L340,302 L341,303 L341,304 L342,305 L342,306 L344,308 L344,309 L346,311 L347,311 L350,314 L351,314 L353,316 L353,317 L355,319 L355,328 L354,329 L354,331 L353,332 L352,331 L352,330 L351,329 L351,328 L350,327 L349,327 L348,326 L347,326 L346,325 L345,325 L344,324 L342,324 L341,323 L326,323 L325,322 L324,322 L323,323 L320,323 L319,324 L317,324 L312,329 L312,330 L311,331 L311,332 L310,333 L310,334 L309,335 L309,337 L308,338 L308,341 L307,342 L307,345 L306,346 L306,357 L343,357 L338,352 L336,352 L335,351 L325,351 L324,350 L322,350 L320,348 L320,344 L321,343 L321,341 L324,338 L325,338 L326,337 L329,337 L330,336 L332,336 L333,337 L334,337 L335,336 L339,336 L340,337 L347,337 L348,338 L349,338 L350,339 L351,339 L357,345 L357,347 L358,348 L358,350 L359,351 L359,353 L360,354 L360,357 L374,357 L373,356 L374,355 L374,353 L375,352 L375,351 L378,348 L379,348 L380,347 L381,347 L382,348 L383,347 L384,347 L388,351 L388,352 L388,350 L387,349 L387,346 L386,345 L386,343 L384,341 L384,340 L383,339 L381,339 L380,338 L375,338 L374,337 L372,337 L371,336 L370,336 L369,335 L369,334 L368,333 L368,329 L373,324 L374,324 L375,323 L377,323 L378,322 L380,322 L381,321 L383,321 L384,320 L385,320 L386,319 L388,319 L389,318 L390,318 L391,317 L392,317 L395,314 L396,314 L397,313 L398,313 L399,312 L401,312 L402,311 L403,311 L404,310 L406,310 L407,309 L408,309 L406,309 L403,306 L403,305 L401,303 L401,301 L401,303 L400,304 L400,305 L399,306 L399,307 L397,309 L396,309 L395,310 L392,310 L391,311 L375,311 L374,310 L373,311 L366,311 L365,310 L364,310 L358,304 L358,303 L356,301 L356,300 L354,298 L354,297 L352,295 L352,294 L351,293 L351,292 L349,290 L349,289 L348,288 L348,287 L346,285 L346,284 L345,283 L345,282 L344,281 L344,280 L343,279 L343,278 L342,277 L342,275 L341,274 L341,273 L340,272 L340,270 L339,269 L339,267 L338,266 L338,261 L337,260 L337,256 L338,255 L338,252 L339,251 L339,248 L340,247 L340,245 L341,244 L341,243 L342,242 L342,241 L343,240 L343,238 L344,237 L344,235 L345,234 L345,233 L346,232 L346,231 L347,230 L347,229 L353,223 L354,223 L355,222 L356,222 L361,217 L361,216 L362,215 L362,214 L363,213 L363,211 L364,210 L364,206 L365,205 L365,190 L366,189 L366,186 L367,185 L367,184 L369,182 L371,182 L372,181 L373,182 L376,182 L377,183 L377,184 L379,186 L379,187 L380,188 L380,190 L381,191 L381,192 L382,193 L382,195 L383,196 L383,198 L384,199 L384,200 L385,201 L385,203 L386,204 L386,205 L387,206 L387,207 L388,208 L388,209 L389,210 L389,211 L390,212 L390,213 L392,215 L392,216 L394,218 L394,219 L397,222 L398,222 L399,223 L400,223 L403,226 L403,227 L404,228 L404,230 L405,231 L405,234 L404,235 L404,238 L403,239 L403,240 L402,241 L401,240 L401,239 L400,238 L400,237 L399,236 L398,236 L397,235 L396,235 L395,234 L394,234 L393,233 L391,233 L390,232 L370,232 L369,233 L367,233 L365,235 L364,235 L363,236 L363,237 L361,239 L361,240 L360,241 L360,242 L359,243 L359,244 L358,245 L358,247 L357,248 L357,251 L356,252 L356,256 L355,257 L355,264 L356,265 L356,269 L357,270 L357,272 L358,273 L358,274 L359,275 L359,277 L360,278 L360,279 L361,280 L361,281 L362,282 L362,283 L363,284 L363,285 L364,286 L364,287 L365,288 L365,289 L366,290 L366,291 L369,294 L369,295 L370,295 L371,296 L373,296 L374,297 L384,297 L385,296 L386,296 L387,295 L387,289 L386,288 L386,287 L385,287 L384,286 L377,286 L373,282 L373,280 L372,279 L372,275 L375,272 L377,272 L378,271 L383,271 L384,272 L388,272 L389,273 L391,273 L392,274 L393,274 L395,276 L395,273 L394,272 L394,270 L393,269 L393,268 L392,267 L392,266 L387,261 L384,261 L383,260 L373,260 L372,259 L371,259 L370,258 L370,257 L369,256 L369,254 L370,253 L370,251 L375,246 L396,246 L397,247 L398,247 L399,248 L400,248 L406,254 L406,255 L407,256 L407,258 L408,259 L408,262 L409,263 L409,266 L410,267 L410,273 L411,274 L411,280 L412,281 L412,286 L413,287 L413,290 L414,291 L414,293 L415,294 L415,295 L417,297 L418,297 L419,298 L422,298 L423,297 L424,297 L425,296 L425,295 L426,294 L426,283 L425,282 L425,278 L424,277 L424,274 L423,273 L423,263 L424,262 L424,261 L425,260 L425,259 L426,258 L427,258 L428,257 L434,257 L437,260 L437,261 L438,262 L437,261 L437,258 L436,257 L436,255 L435,254 L435,252 L434,251 L434,250 L433,249 L432,249 L431,248 L430,248 L429,247 L423,247 L422,246 L421,246 L420,245 L419,245 L418,244 L418,243 L417,242 L417,239 L418,238 L418,237 L421,234 L422,234 L423,233 L424,233 L425,232 L427,232 L428,231 L430,231 L431,230 L433,230 L434,229 L435,229 L436,228 L438,228 L440,226 L441,226 L442,225 L443,225 L445,223 L446,223 L447,222 L448,222 L449,221 L450,221 L451,220 L453,220 L454,219 L457,219 L457,218 L455,218 L452,215 L452,214 L450,212 L450,210 L450,213 L449,214 L449,215 L446,218 L445,218 L444,219 L442,219 L441,220 L414,220 L407,213 L407,212 L405,210 L405,209 L403,207 L403,206 L401,204 L401,203 L400,202 L400,201 L399,200 L399,199 L397,197 L397,196 L396,195 L396,194 L395,193 L395,192 L393,190 L393,188 L392,187 L392,186 L391,185 L391,183 L390,182 L390,181 L389,180 L389,178 L388,177 L388,175 L387,174 L387,163 L388,162 L388,159 L389,158 L389,156 L390,155 L390,153 L391,152 L391,150 L392,149 L392,147 L393,146 L393,145 L394,144 L394,142 L395,141 L395,140 L396,139 L396,138 L402,132 L403,132 L404,131 L405,131 L407,129 L408,129 L409,128 L409,127 L411,125 L411,123 L412,122 L412,121 L413,120 L413,117 L414,116 L414,107 L415,106 L414,105 L414,104 L415,103 L415,102 L414,101 L415,100 L415,95 L416,94 L416,93 L418,91 L420,91 L421,90 L422,90 L423,91 L425,91 L427,93 L427,94 L428,95 L428,96 L429,97 L429,98 L430,99 L430,101 L431,102 L431,103 L432,104 L432,106 L433,107 L433,109 L434,110 L434,111 L435,112 L435,113 L436,114 L436,115 L437,116 L437,117 L438,118 L438,119 L439,120 L439,121 L440,122 L440,123 L442,125 L442,126 L445,129 L445,130 L446,130 L448,132 L449,132 L453,136 L453,138 L454,139 L454,144 L453,145 L453,148 L452,149 L451,149 L450,148 L450,147 L448,145 L447,145 L446,144 L445,144 L444,143 L443,143 L442,142 L439,142 L438,141 L421,141 L420,142 L417,142 L416,143 L415,143 L412,146 L412,147 L410,149 L410,150 L409,151 L409,152 L408,153 L408,155 L407,156 L407,158 L406,159 L406,162 L405,163 L405,176 L406,177 L406,180 L407,181 L407,182 L408,183 L408,185 L409,186 L409,187 L410,188 L410,190 L411,191 L411,192 L412,193 L412,194 L414,196 L414,197 L415,198 L415,199 L416,200 L416,201 L420,205 L421,205 L422,206 L435,206 L437,204 L437,200 L436,199 L436,197 L435,196 L433,196 L432,195 L426,195 L423,192 L423,191 L422,190 L422,187 L421,186 L422,185 L422,183 L424,181 L437,181 L438,182 L440,182 L441,183 L442,183 L443,184 L444,184 L445,185 L445,184 L444,183 L444,181 L443,180 L443,178 L442,177 L442,176 L440,174 L440,173 L439,173 L436,170 L432,170 L431,169 L430,170 L429,169 L422,169 L419,166 L419,161 L420,160 L420,159 L422,157 L423,157 L424,156 L425,156 L426,155 L443,155 L444,156 L447,156 L448,157 L449,157 L450,158 L451,158 L454,161 L454,162 L455,163 L455,164 L456,165 L456,166 L457,167 L457,170 L458,171 L458,174 L459,175 L459,180 L460,181 L460,187 L461,188 L461,193 L462,194 L462,198 L463,199 L463,201 L464,202 L464,203 L465,204 L465,205 L466,206 L467,206 L468,207 L472,207 L475,204 L475,201 L476,200 L476,196 L475,195 L475,191 L474,190 L474,187 L473,186 L473,182 L472,181 L472,172 L473,171 L473,170 L477,166 L477,156 L473,156 L472,155 L470,155 L466,151 L466,149 L467,148 L467,147 L468,146 L468,145 L469,144 L470,144 L472,142 L474,142 L475,141 L476,141 L477,140 L477,129 L463,129 L457,123 L457,122 L454,119 L454,118 L453,117 L453,116 L451,114 L451,113 L450,112 L450,111 L448,109 L448,108 L447,107 L447,106 L445,104 L445,103 L444,102 L444,101 L443,100 L443,99 L442,98 L442,97 L441,96 L441,94 L440,93 L440,92 L439,91 L439,89 L438,88 L438,86 L437,85 L437,82 L436,81 L436,73 L437,72 L437,69 L438,68 L438,66 L439,65 L439,63 L440,62 L440,60 L441,59 L441,57 L442,56 L442,55 L443,54 L443,52 L444,51 L444,50 L445,49 L445,48 L453,40 L455,40 L459,36 L459,35 L460,34 L460,33 L461,32 L461,31 L462,30 L462,27 L463,26 L463,20 L464,19 L464,6 L465,5 L465,3 L468,0 L474,0 L476,2 L476,3 L477,4 L477,0 L435,0 L435,3 L436,4 L436,8 L437,9 L437,15 L438,16 L438,20 L437,21 L437,23 L434,26 L428,26 L424,22 L424,20 L423,19 L423,17 L422,16 L422,11 L421,10 L421,5 L420,4 L420,0 L406,0 L406,1 L407,2 L407,4 L406,5 L403,2 L402,2 L401,1 L399,1 L398,0 L385,0 L384,1 L384,2 L383,3 L383,5 L384,6 L384,8 L385,9 L385,10 L387,12 L391,12 L392,13 L396,13 L398,15 L398,18 L399,19 L399,21 L398,22 L398,23 L396,25 L383,25 L382,24 L381,24 L376,19 L376,18 L374,16 L374,15 L373,14 L373,13 L372,12 L372,11 L371,10 L371,9 L370,8 L370,7 L369,6 L369,5 L368,4 L368,2 L367,1 L367,0 L352,0 L352,1 L353,2 L353,3 L354,4 L354,6 L355,7 L355,8 L356,9 L356,10 L357,11 L357,12 L359,14 L359,15 L360,16 L360,17 L362,19 L362,20 L363,21 L363,22 L364,23 L364,24 L366,26 L366,27 L368,29 L368,30 L371,33 L371,34 L373,36 L374,36 L375,37 L376,37 L377,38 L402,38 L403,37 L406,37 L409,34 L409,32 L410,31 L410,29 L411,28 L412,29 L412,31 L413,32 L413,33 L416,36 L417,36 L418,37 L416,39 L413,39 L412,40 L411,40 L410,41 L409,41 L408,42 L407,42 L406,43 L405,43 L403,45 L402,45 L401,46 L400,46 L399,47 L398,47 L397,48 L396,48 L395,49 L393,49 L392,50 L390,50 L389,51 L387,51 L386,52 L385,52 L384,53 L383,53 L379,57 L379,60 L380,61 L380,62 L381,62 L383,64 L388,64 L389,65 L392,65 L397,70 L397,71 L398,72 L398,75 L399,76 L399,78 L398,79 L395,76 L390,76 L389,77 L388,77 L386,79 L386,81 L385,82 L385,90 L386,91 L386,95 L387,96 L387,100 L388,101 L388,113 L387,114 L387,115 L386,116 L385,116 L384,117 L379,117 L375,113 L375,112 L374,111 L374,108 L373,107 L373,103 L372,102 L372,98 L371,97 L371,91 L370,90 L370,84 L369,83 L369,80 L368,79 L368,77 L367,76 L367,74 L365,72 L365,71 L361,67 L360,67 L359,66 L355,66 L354,65 L338,65 L337,66 L336,66 L335,67 L334,67 L333,68 L333,69 L332,70 L332,73 L331,74 L332,75 L332,76 L333,76 L334,77 L343,77 L344,78 L346,78 L347,79 L349,79 L355,85 L355,87 L356,88 L356,89 L357,90 L357,93 L358,94 L358,95 L357,96 L353,92 L351,92 L350,91 L346,91 L345,90 L344,91 L342,91 L341,90 L340,91 L339,91 L338,90 L337,91 L336,91 L334,93 L334,97 L335,98 L335,99 L336,100 L336,101 L338,103 L345,103 L346,104 L347,104 L348,105 L348,106 L349,107 L349,114 L348,115 L347,115 L346,116 L334,116 L333,115 L332,115 L326,109 L326,108 L325,107 L325,106 L324,105 L324,104 L323,103 L323,102 L322,101 L322,100 L321,99 L321,98 L320,97 L320,96 L319,95 L319,93 L318,92 L318,90 L317,89 L317,87 L316,86 L316,81 L315,80 L315,75 L316,74 L316,70 L317,69 L317,67 L318,66 L318,64 L319,63 L319,61 L320,60 L320,59 L321,58 L321,57 L323,55 L323,54 L324,53 L325,53 L328,50 L330,50 L331,49 L349,49 L350,50 L354,50 L355,51 L357,51 L359,53 L360,53 L363,56 L363,57 L364,56 L364,53 L365,52 L365,48 L364,47 L364,45 L359,40 L358,40 L357,39 L356,39 L353,36 L353,35 L351,33 L351,32 L350,31 L350,30 L348,28 L348,27 L347,26 L347,24 L346,23 L346,22 L345,21 L345,20 L344,19 L344,17 L343,16 L343,14 L342,13 L342,12 L341,11 L341,9 L340,8 L340,7 L339,6 L339,5 L338,4 L338,3 Z" fill="black" /><path d="M250,352 L251,351 L252,352 L251,353 Z" fill="black" /><path d="M269,327 L270,326 L277,326 L279,328 L279,329 L280,330 L280,334 L279,335 L279,337 L278,338 L278,339 L276,341 L276,342 L273,345 L272,345 L270,347 L266,347 L264,345 L264,344 L263,343 L263,342 L262,341 L262,339 L261,338 L261,334 L262,333 L262,332 L267,327 Z" fill="black" /><path d="M319,236 L320,235 L326,235 L328,237 L328,238 L329,239 L329,244 L328,245 L328,247 L327,248 L327,249 L320,256 L315,256 L313,254 L313,253 L312,252 L312,251 L311,250 L311,247 L310,246 L310,244 L311,243 L311,241 L315,237 L316,237 L317,236 Z" fill="black" /><path d="M370,145 L371,144 L372,145 L373,145 L374,144 L375,145 L376,145 L378,147 L378,148 L379,149 L379,151 L378,152 L378,155 L377,156 L377,157 L376,158 L376,159 L370,165 L369,165 L368,166 L366,166 L365,165 L364,165 L363,164 L363,163 L362,162 L362,161 L361,160 L361,159 L360,158 L360,152 L361,151 L361,150 L364,147 L365,147 L366,146 L367,146 L368,145 Z" fill="black" /><path d="M420,54 L421,53 L422,54 L423,53 L424,54 L425,54 L427,56 L427,57 L428,58 L428,62 L427,63 L427,65 L425,67 L425,68 L418,75 L415,75 L411,71 L411,70 L410,69 L410,67 L409,66 L409,61 L410,60 L410,59 L412,57 L413,57 L415,55 L416,55 L417,54 Z" fill="black" /><path d="M283,0 L283,4 L284,5 L284,10 L285,11 L285,15 L286,16 L286,19 L287,20 L287,21 L288,22 L288,23 L290,25 L296,25 L298,23 L298,21 L299,20 L299,14 L298,13 L298,8 L297,7 L297,4 L296,3 L296,0 Z" fill="black" /><path d="M259,0 L263,0 L264,1 L265,1 L267,3 L268,3 L268,1 L267,0 Z" fill="black" /><path d="M230,0 L231,1 L231,3 L232,4 L232,5 L233,6 L233,7 L234,8 L234,10 L236,12 L236,13 L237,14 L237,15 L238,16 L238,17 L239,18 L239,19 L243,23 L244,23 L245,24 L255,24 L256,25 L257,24 L259,24 L260,23 L260,17 L259,16 L259,15 L258,14 L254,14 L253,13 L252,14 L251,13 L249,13 L246,10 L246,8 L245,7 L245,2 L247,0 Z" fill="black" /><path d="M57,0 L56,1 L55,1 L53,3 L53,5 L52,6 L52,18 L51,19 L51,26 L50,27 L50,30 L49,31 L49,32 L48,33 L48,34 L47,35 L47,36 L44,39 L42,39 L41,40 L40,40 L38,42 L37,42 L34,45 L34,46 L32,48 L32,49 L31,50 L31,52 L30,53 L30,55 L29,56 L29,58 L28,59 L28,61 L27,62 L27,64 L26,65 L26,67 L25,68 L25,71 L24,72 L24,82 L25,83 L25,86 L26,87 L26,89 L27,90 L27,91 L28,92 L28,94 L29,95 L29,96 L30,97 L30,98 L31,99 L31,100 L32,101 L32,102 L33,103 L33,104 L34,105 L34,106 L36,108 L36,109 L38,111 L38,112 L39,113 L39,114 L41,116 L41,117 L42,118 L42,119 L44,121 L44,122 L49,127 L50,127 L51,128 L52,128 L53,129 L70,129 L71,128 L72,128 L73,129 L74,128 L75,128 L76,129 L77,128 L80,128 L81,127 L82,127 L84,125 L84,124 L85,123 L85,120 L86,119 L87,120 L87,121 L88,122 L88,123 L90,125 L90,126 L91,126 L92,127 L93,127 L94,128 L93,129 L92,129 L91,130 L88,130 L86,132 L84,132 L82,134 L81,134 L80,135 L79,135 L77,137 L76,137 L75,138 L73,138 L72,139 L71,139 L70,140 L68,140 L67,141 L65,141 L64,142 L63,142 L62,143 L60,143 L58,145 L57,145 L55,147 L55,148 L54,149 L54,150 L55,151 L55,152 L57,154 L58,154 L59,155 L64,155 L65,156 L67,156 L68,157 L69,157 L71,159 L71,160 L72,161 L72,162 L73,163 L73,165 L74,166 L74,169 L73,170 L70,167 L65,167 L64,168 L63,168 L62,169 L62,170 L61,171 L61,173 L60,174 L60,179 L61,180 L61,185 L62,186 L62,190 L63,191 L63,197 L64,198 L64,201 L63,202 L63,205 L60,208 L55,208 L54,207 L53,207 L51,205 L51,204 L50,203 L50,202 L49,201 L49,199 L48,198 L48,193 L47,192 L47,187 L46,186 L46,180 L45,179 L45,174 L44,173 L44,170 L43,169 L43,167 L42,166 L42,165 L41,164 L41,163 L36,158 L35,158 L34,157 L30,157 L29,156 L13,156 L12,157 L11,157 L10,158 L9,158 L9,159 L8,160 L8,161 L7,162 L7,167 L8,167 L9,168 L16,168 L17,169 L18,168 L19,169 L22,169 L23,170 L24,170 L30,176 L30,177 L31,178 L31,180 L32,181 L32,183 L33,184 L33,185 L32,186 L30,184 L29,184 L28,183 L25,183 L24,182 L21,182 L20,181 L19,181 L18,182 L17,181 L16,181 L15,182 L11,182 L9,184 L9,187 L10,188 L10,190 L11,191 L11,192 L13,194 L21,194 L24,197 L24,199 L25,200 L24,201 L25,202 L25,203 L24,204 L24,205 L22,207 L10,207 L9,206 L7,206 L2,201 L2,200 L1,199 L1,198 L0,197 L0,196 L0,218 L1,218 L2,219 L3,219 L4,220 L5,219 L24,219 L25,220 L26,220 L27,219 L31,219 L32,218 L33,218 L34,217 L34,216 L35,215 L35,214 L36,213 L36,211 L37,210 L38,211 L38,212 L39,213 L39,214 L40,215 L40,216 L42,218 L43,218 L44,219 L43,220 L41,220 L40,221 L38,221 L37,222 L36,222 L35,223 L34,223 L33,224 L32,224 L30,226 L29,226 L28,227 L27,227 L26,228 L25,228 L24,229 L23,229 L22,230 L20,230 L19,231 L18,231 L17,232 L15,232 L14,233 L12,233 L11,234 L10,234 L8,236 L7,236 L6,237 L6,238 L5,239 L5,242 L8,245 L10,245 L11,246 L17,246 L18,247 L19,247 L22,250 L22,251 L23,252 L23,253 L24,254 L24,256 L25,257 L25,260 L24,261 L21,258 L15,258 L14,259 L13,259 L13,260 L12,261 L12,262 L11,263 L11,272 L12,273 L12,276 L13,277 L13,282 L14,283 L14,289 L15,290 L14,291 L14,295 L11,298 L10,298 L9,299 L8,299 L7,298 L4,298 L2,296 L2,295 L1,294 L1,293 L0,292 L0,290 L0,326 L2,326 L3,327 L3,328 L4,329 L4,332 L5,333 L4,334 L4,337 L2,339 L2,340 L0,342 L0,357 L14,357 L14,356 L13,355 L13,344 L14,343 L14,341 L15,340 L15,337 L16,336 L16,334 L17,333 L17,332 L18,331 L18,329 L19,328 L19,326 L20,325 L20,324 L21,323 L21,321 L24,318 L24,317 L25,316 L26,316 L29,313 L30,313 L31,312 L32,312 L36,308 L36,307 L37,306 L37,305 L38,304 L38,302 L39,301 L39,298 L40,297 L40,288 L41,287 L40,286 L40,283 L41,282 L41,277 L42,276 L42,275 L45,272 L50,272 L54,276 L54,277 L55,278 L55,279 L56,280 L56,282 L57,283 L57,285 L58,286 L58,288 L59,289 L59,290 L60,291 L60,293 L61,294 L61,295 L62,296 L62,297 L63,298 L63,299 L64,300 L64,301 L65,302 L65,303 L67,305 L67,306 L68,307 L68,308 L72,312 L73,312 L79,318 L79,319 L80,320 L80,326 L79,327 L79,329 L78,330 L77,330 L75,328 L75,327 L74,327 L73,326 L72,326 L71,325 L70,325 L69,324 L67,324 L66,323 L60,323 L59,322 L57,322 L56,323 L55,323 L54,322 L53,323 L52,323 L51,322 L49,322 L48,323 L45,323 L44,324 L42,324 L37,329 L37,330 L36,331 L36,332 L35,333 L35,334 L34,335 L34,336 L33,337 L33,340 L32,341 L32,344 L31,345 L31,357 L68,357 L63,352 L61,352 L60,351 L50,351 L49,350 L47,350 L45,348 L45,343 L46,342 L46,341 L50,337 L53,337 L54,336 L55,337 L62,337 L63,336 L64,337 L72,337 L73,338 L74,338 L75,339 L76,339 L80,343 L80,344 L81,345 L81,346 L82,347 L82,348 L83,349 L83,351 L84,352 L84,356 L85,357 L98,357 L98,354 L99,353 L99,352 L100,351 L100,350 L102,348 L106,348 L107,347 L108,348 L110,348 L112,350 L112,351 L113,352 L113,353 L113,352 L112,351 L112,348 L111,347 L111,345 L110,344 L110,342 L107,339 L106,339 L105,338 L100,338 L99,337 L97,337 L96,336 L95,336 L93,334 L93,333 L92,332 L92,331 L93,330 L93,328 L96,325 L97,325 L98,324 L99,324 L100,323 L101,323 L102,322 L104,322 L105,321 L107,321 L108,320 L110,320 L111,319 L112,319 L113,318 L114,318 L115,317 L116,317 L118,315 L119,315 L120,314 L121,314 L122,313 L123,313 L124,312 L125,312 L126,311 L127,311 L128,310 L131,310 L132,309 L131,309 L126,304 L126,303 L125,302 L125,301 L125,304 L124,305 L124,306 L121,309 L120,309 L119,310 L116,310 L115,311 L114,311 L113,310 L112,310 L111,311 L108,311 L107,310 L106,311 L101,311 L100,310 L98,310 L97,311 L91,311 L90,310 L88,310 L85,307 L85,306 L82,303 L82,302 L79,299 L79,298 L78,297 L78,296 L76,294 L76,293 L75,292 L75,291 L73,289 L73,288 L72,287 L72,286 L71,285 L71,284 L70,283 L70,282 L69,281 L69,280 L68,279 L68,278 L67,277 L67,276 L66,275 L66,273 L65,272 L65,271 L64,270 L64,268 L63,267 L63,264 L62,263 L62,254 L63,253 L63,251 L64,250 L64,247 L65,246 L65,244 L66,243 L66,242 L67,241 L67,239 L68,238 L68,236 L69,235 L69,234 L70,233 L70,232 L71,231 L71,230 L72,229 L72,228 L76,224 L77,224 L79,222 L80,222 L81,221 L82,221 L85,218 L85,217 L86,216 L86,215 L87,214 L87,212 L88,211 L88,209 L89,208 L89,201 L90,200 L90,187 L91,186 L91,185 L94,182 L96,182 L97,181 L98,182 L100,182 L103,185 L103,186 L104,187 L104,188 L105,189 L105,191 L106,192 L106,194 L107,195 L107,197 L108,198 L108,199 L109,200 L109,202 L110,203 L110,204 L111,205 L111,206 L112,207 L112,208 L113,209 L113,210 L114,211 L114,212 L115,213 L115,214 L117,216 L117,217 L123,223 L124,223 L128,227 L128,228 L129,229 L129,236 L128,237 L128,239 L127,240 L125,238 L125,237 L124,237 L122,235 L121,235 L120,234 L119,234 L118,233 L115,233 L114,232 L95,232 L94,233 L92,233 L91,234 L90,234 L87,237 L87,238 L86,239 L86,240 L84,242 L84,244 L83,245 L83,246 L82,247 L82,250 L81,251 L81,254 L80,255 L80,265 L81,266 L81,270 L82,271 L82,272 L83,273 L83,275 L84,276 L84,278 L85,279 L85,280 L86,281 L86,282 L87,283 L87,284 L88,285 L88,286 L90,288 L90,289 L91,290 L91,291 L92,292 L92,293 L95,296 L97,296 L98,297 L109,297 L110,296 L111,296 L112,295 L112,290 L111,289 L111,288 L109,286 L102,286 L101,285 L100,285 L99,284 L99,283 L98,282 L98,281 L97,280 L97,275 L98,274 L98,273 L99,272 L102,272 L103,271 L105,271 L106,272 L107,271 L108,271 L109,272 L113,272 L114,273 L116,273 L117,274 L118,274 L120,276 L120,273 L119,272 L119,271 L118,270 L118,268 L117,267 L117,266 L112,261 L109,261 L108,260 L98,260 L97,259 L96,259 L94,257 L94,252 L96,250 L96,249 L97,248 L98,248 L100,246 L120,246 L121,247 L123,247 L124,248 L125,248 L129,252 L129,253 L131,255 L131,257 L132,258 L132,260 L133,261 L133,264 L134,265 L134,269 L135,270 L135,276 L136,277 L136,283 L137,284 L137,288 L138,289 L138,292 L139,293 L139,294 L140,295 L140,296 L141,297 L143,297 L144,298 L147,298 L150,295 L150,293 L151,292 L151,286 L150,285 L150,281 L149,280 L149,276 L148,275 L148,272 L147,271 L148,270 L147,269 L147,264 L148,263 L148,262 L149,261 L149,260 L152,257 L158,257 L159,258 L160,258 L161,259 L161,260 L162,261 L162,262 L162,260 L161,259 L161,256 L160,255 L160,253 L159,252 L159,251 L156,248 L154,248 L153,247 L148,247 L147,246 L146,246 L145,245 L144,245 L142,243 L142,242 L141,241 L142,240 L142,238 L147,233 L149,233 L150,232 L151,232 L152,231 L154,231 L155,230 L157,230 L158,229 L160,229 L161,228 L162,228 L163,227 L164,227 L165,226 L166,226 L168,224 L169,224 L171,222 L173,222 L174,221 L175,221 L176,220 L177,220 L178,219 L181,219 L181,218 L180,218 L175,213 L175,211 L174,211 L174,214 L173,215 L173,216 L172,217 L171,217 L169,219 L167,219 L166,220 L139,220 L138,219 L137,219 L133,215 L133,214 L130,211 L130,210 L128,208 L128,207 L127,206 L127,205 L125,203 L125,202 L124,201 L124,200 L122,198 L122,197 L121,196 L121,195 L120,194 L120,193 L118,191 L118,190 L117,189 L117,187 L116,186 L116,185 L115,184 L115,182 L114,181 L114,179 L113,178 L113,176 L112,175 L112,171 L111,170 L111,166 L112,165 L112,161 L113,160 L113,158 L114,157 L114,154 L115,153 L115,152 L116,151 L116,149 L117,148 L117,146 L118,145 L118,144 L119,143 L119,141 L120,140 L120,139 L123,136 L123,135 L124,134 L125,134 L128,131 L130,131 L135,126 L135,125 L136,124 L136,122 L137,121 L137,119 L138,118 L138,113 L139,112 L139,98 L140,97 L140,94 L143,91 L145,91 L146,90 L147,90 L148,91 L149,91 L152,94 L152,95 L153,96 L153,97 L154,98 L154,99 L155,100 L155,102 L156,103 L156,105 L157,106 L157,107 L158,108 L158,110 L159,111 L159,112 L160,113 L160,114 L161,115 L161,116 L162,117 L162,118 L163,119 L163,120 L164,121 L164,122 L165,123 L165,124 L167,126 L167,127 L172,132 L173,132 L178,137 L178,141 L179,142 L179,143 L178,144 L178,147 L177,148 L177,149 L176,150 L175,149 L175,148 L174,147 L174,146 L173,146 L171,144 L170,144 L169,143 L167,143 L166,142 L163,142 L162,141 L145,141 L144,142 L142,142 L141,143 L140,143 L135,148 L135,149 L134,150 L134,151 L133,152 L133,153 L132,154 L132,157 L131,158 L131,160 L130,161 L130,165 L129,166 L129,174 L130,175 L130,178 L131,179 L131,181 L132,182 L132,184 L133,185 L133,186 L134,187 L134,189 L135,190 L135,191 L136,192 L136,193 L138,195 L138,196 L139,197 L139,198 L140,199 L140,200 L142,202 L142,203 L144,205 L146,205 L147,206 L160,206 L161,205 L161,198 L160,197 L160,196 L158,196 L157,195 L151,195 L147,191 L147,189 L146,188 L146,184 L149,181 L161,181 L162,182 L165,182 L166,183 L167,183 L169,185 L169,182 L168,181 L168,179 L167,178 L167,177 L166,176 L166,175 L162,171 L161,171 L160,170 L157,170 L156,169 L147,169 L146,168 L145,168 L143,166 L143,163 L144,162 L144,160 L148,156 L149,156 L150,155 L167,155 L168,156 L169,155 L170,156 L172,156 L173,157 L174,157 L179,162 L179,163 L180,164 L180,165 L181,166 L181,167 L182,168 L182,171 L183,172 L183,176 L184,177 L184,182 L185,183 L185,189 L186,190 L186,194 L187,195 L187,199 L188,200 L188,202 L189,203 L189,204 L190,205 L190,206 L191,206 L192,207 L197,207 L200,204 L200,193 L199,192 L199,188 L198,187 L198,183 L197,182 L197,172 L198,171 L198,170 L202,166 L208,166 L211,169 L211,170 L211,168 L210,167 L210,164 L209,163 L209,161 L205,157 L204,157 L203,156 L202,157 L201,157 L200,156 L197,156 L196,155 L194,155 L191,152 L191,148 L192,147 L192,146 L194,144 L195,144 L197,142 L199,142 L200,141 L201,141 L202,140 L204,140 L205,139 L207,139 L208,138 L210,138 L211,137 L212,137 L213,136 L214,136 L216,134 L217,134 L218,133 L219,133 L221,131 L223,131 L224,130 L225,130 L226,129 L228,129 L229,128 L232,128 L231,128 L230,127 L229,127 L225,123 L225,122 L224,121 L224,119 L224,122 L223,123 L223,124 L219,128 L217,128 L216,129 L191,129 L190,130 L189,129 L188,129 L187,128 L186,128 L183,125 L183,124 L180,121 L180,120 L178,118 L178,117 L176,115 L176,114 L175,113 L175,112 L173,110 L173,109 L172,108 L172,107 L171,106 L171,105 L169,103 L169,102 L168,101 L168,100 L167,99 L167,98 L166,97 L166,95 L165,94 L165,93 L164,92 L164,91 L163,90 L163,88 L162,87 L162,85 L161,84 L161,77 L160,76 L161,75 L161,71 L162,70 L162,67 L163,66 L163,64 L164,63 L164,61 L166,59 L166,57 L167,56 L167,54 L168,53 L168,51 L170,49 L170,48 L171,47 L171,46 L175,42 L176,42 L178,40 L179,40 L180,39 L181,39 L184,36 L184,35 L185,34 L185,33 L186,32 L186,30 L187,29 L187,26 L188,25 L188,16 L189,15 L189,14 L188,13 L188,11 L189,10 L189,5 L190,4 L190,3 L193,0 L199,0 L201,2 L201,3 L202,4 L202,5 L203,6 L203,7 L204,8 L204,10 L205,11 L205,13 L206,14 L206,15 L207,16 L207,18 L208,19 L208,20 L209,21 L209,22 L210,23 L210,24 L211,25 L211,27 L213,29 L213,30 L214,31 L214,32 L215,33 L215,34 L217,36 L217,37 L220,40 L221,40 L223,42 L224,42 L226,44 L226,45 L227,46 L227,47 L228,48 L228,54 L227,55 L227,57 L225,59 L224,58 L224,56 L222,54 L221,54 L220,53 L219,53 L218,52 L216,52 L215,51 L212,51 L211,50 L195,50 L194,51 L191,51 L190,52 L189,52 L185,56 L185,57 L184,58 L184,59 L183,60 L183,61 L182,62 L182,63 L181,64 L181,66 L180,67 L180,70 L179,71 L179,76 L178,77 L179,78 L179,80 L178,81 L179,82 L179,86 L180,87 L180,89 L181,90 L181,92 L182,93 L182,95 L183,96 L183,97 L184,98 L184,99 L185,100 L185,101 L186,102 L186,103 L187,104 L187,105 L188,106 L188,107 L189,108 L189,109 L192,112 L192,113 L193,113 L194,114 L195,114 L196,115 L209,115 L210,114 L210,107 L209,106 L209,105 L206,105 L205,104 L200,104 L197,101 L197,100 L196,99 L196,97 L195,96 L195,94 L196,93 L196,92 L198,90 L210,90 L211,91 L214,91 L215,92 L216,92 L218,94 L219,94 L218,93 L218,90 L217,89 L217,88 L216,87 L216,86 L215,85 L215,84 L211,80 L210,80 L209,79 L204,79 L203,78 L196,78 L195,77 L194,77 L193,76 L193,75 L192,74 L193,73 L193,70 L194,69 L194,68 L196,66 L197,66 L198,65 L199,65 L200,64 L218,64 L219,65 L221,65 L222,66 L223,66 L225,68 L226,68 L227,69 L227,70 L229,72 L229,73 L230,74 L230,76 L231,77 L231,79 L232,80 L232,83 L233,84 L233,89 L234,90 L234,96 L235,97 L235,102 L236,103 L236,107 L237,108 L237,111 L238,112 L238,113 L240,115 L241,115 L242,116 L246,116 L249,113 L249,111 L250,110 L249,109 L249,107 L250,106 L249,105 L249,100 L248,99 L248,96 L247,95 L247,91 L246,90 L246,82 L247,81 L247,79 L251,75 L257,75 L260,78 L260,76 L259,75 L259,72 L258,71 L258,70 L257,69 L257,68 L256,67 L255,67 L254,66 L253,66 L252,65 L246,65 L245,64 L244,64 L243,63 L242,63 L241,62 L241,61 L240,60 L240,58 L241,57 L241,56 L245,52 L246,52 L247,51 L248,51 L249,50 L251,50 L252,49 L254,49 L255,48 L257,48 L258,47 L259,47 L260,46 L261,46 L262,45 L263,45 L264,44 L265,44 L267,42 L268,42 L270,40 L272,40 L273,39 L274,39 L275,38 L277,38 L278,37 L281,37 L280,37 L279,36 L278,36 L275,33 L275,32 L274,31 L274,30 L273,29 L273,28 L273,32 L271,34 L271,35 L270,36 L269,36 L268,37 L266,37 L265,38 L240,38 L239,39 L238,38 L237,38 L230,31 L230,30 L228,28 L228,27 L226,25 L226,24 L225,23 L225,22 L223,20 L223,19 L222,18 L222,17 L221,16 L221,15 L219,13 L219,12 L218,11 L218,10 L217,9 L217,8 L216,7 L216,6 L215,5 L215,4 L214,3 L214,1 L213,0 L159,0 L160,1 L160,4 L161,5 L161,9 L162,10 L162,23 L159,26 L153,26 L152,25 L151,25 L150,24 L150,23 L149,22 L149,21 L148,20 L148,17 L147,16 L147,13 L146,12 L146,7 L145,6 L145,0 L131,0 L131,2 L132,3 L132,4 L131,5 L128,2 L127,2 L126,1 L123,1 L122,0 L110,0 L108,2 L108,6 L109,7 L109,9 L111,11 L111,12 L116,12 L117,13 L118,12 L119,13 L121,13 L122,14 L122,15 L123,16 L123,23 L121,25 L108,25 L107,24 L106,24 L105,23 L104,23 L103,22 L103,21 L100,18 L100,17 L99,16 L99,15 L98,14 L98,13 L96,11 L96,10 L95,9 L95,7 L94,6 L94,5 L93,4 L93,3 L92,2 L92,0 L77,0 L77,2 L78,3 L78,4 L79,5 L79,6 L80,7 L80,8 L81,9 L81,10 L82,11 L82,12 L83,13 L83,14 L84,15 L84,16 L86,18 L86,19 L87,20 L87,21 L89,23 L89,24 L91,26 L91,27 L92,28 L92,29 L94,31 L94,32 L98,36 L99,36 L100,37 L101,37 L102,38 L127,38 L128,37 L130,37 L131,36 L132,36 L133,35 L133,34 L134,33 L134,32 L135,31 L135,30 L136,29 L137,30 L137,31 L138,32 L138,33 L141,36 L142,36 L143,37 L142,38 L141,38 L140,39 L138,39 L137,40 L136,40 L135,41 L134,41 L133,42 L132,42 L131,43 L130,43 L129,44 L128,44 L126,46 L125,46 L124,47 L123,47 L122,48 L120,48 L119,49 L117,49 L116,50 L115,50 L114,51 L112,51 L111,52 L110,52 L109,53 L108,53 L107,54 L106,54 L104,56 L104,61 L106,63 L107,63 L108,64 L113,64 L114,65 L117,65 L121,69 L121,70 L122,71 L122,73 L123,74 L123,77 L124,78 L124,79 L123,80 L119,76 L115,76 L114,77 L112,77 L111,78 L111,79 L110,80 L110,83 L109,84 L109,87 L110,88 L110,93 L111,94 L111,98 L112,99 L112,104 L113,105 L113,112 L112,113 L112,114 L109,117 L104,117 L103,116 L102,116 L100,114 L100,113 L99,112 L99,110 L98,109 L98,106 L97,105 L97,101 L96,100 L96,94 L95,93 L95,87 L94,86 L94,82 L93,81 L93,78 L92,77 L92,76 L91,75 L91,73 L88,70 L88,69 L87,68 L86,68 L85,67 L84,67 L83,66 L79,66 L78,65 L62,65 L61,66 L60,66 L57,69 L57,71 L56,72 L56,75 L58,77 L65,77 L66,78 L71,78 L72,79 L73,79 L74,80 L75,80 L78,83 L78,84 L79,85 L79,86 L80,87 L80,88 L81,89 L81,91 L82,92 L82,94 L81,95 L79,93 L78,93 L77,92 L75,92 L74,91 L60,91 L59,92 L59,93 L58,94 L58,95 L59,96 L59,98 L60,99 L60,100 L61,101 L61,102 L62,103 L70,103 L73,106 L73,107 L74,108 L74,113 L71,116 L59,116 L58,115 L57,115 L56,114 L55,114 L52,111 L52,110 L50,108 L50,107 L49,106 L49,105 L48,104 L48,103 L46,101 L46,99 L45,98 L45,97 L44,96 L44,95 L43,94 L43,92 L42,91 L42,88 L41,87 L41,85 L40,84 L40,72 L41,71 L41,68 L42,67 L42,65 L43,64 L43,63 L44,62 L44,60 L45,59 L45,58 L46,57 L46,56 L51,51 L52,51 L53,50 L55,50 L56,49 L74,49 L75,50 L79,50 L80,51 L81,51 L82,52 L83,52 L88,57 L88,58 L88,56 L89,55 L89,46 L88,45 L88,44 L86,42 L85,42 L83,40 L82,40 L77,35 L77,34 L75,32 L75,31 L74,30 L74,29 L73,28 L73,27 L72,26 L72,25 L71,24 L71,23 L70,22 L70,20 L69,19 L69,18 L68,17 L68,15 L67,14 L67,12 L66,11 L66,10 L65,9 L65,7 L64,6 L64,5 L63,4 L63,3 L61,1 L60,1 L59,0 L58,1 Z" fill="black" /><path d="M24,261 L25,260 L26,261 L25,262 Z" fill="black" /><path d="M44,236 L45,235 L50,235 L51,236 L52,236 L53,237 L53,238 L54,239 L54,243 L53,244 L53,246 L52,247 L52,248 L51,249 L51,250 L46,255 L45,255 L44,256 L40,256 L37,253 L37,251 L36,250 L36,248 L35,247 L35,243 L36,242 L36,241 L40,237 L41,237 L42,236 Z" fill="black" /><path d="M73,170 L74,169 L75,170 L74,171 Z" fill="black" /><path d="M95,145 L96,144 L97,145 L98,144 L99,145 L100,145 L103,148 L103,154 L102,155 L102,156 L101,157 L101,158 L99,160 L99,161 L96,164 L95,164 L93,166 L90,166 L86,162 L86,160 L85,159 L85,157 L84,156 L84,153 L85,152 L85,151 L90,146 L91,146 L92,145 Z" fill="black" /><path d="M145,54 L146,53 L147,54 L150,54 L151,55 L151,56 L152,57 L152,64 L151,65 L151,66 L149,68 L149,69 L145,73 L144,73 L142,75 L139,75 L136,72 L136,71 L135,70 L135,69 L134,68 L134,60 L138,56 L139,56 L141,54 Z" fill="black" /><path d="M8,0 L8,5 L9,6 L9,12 L10,13 L10,16 L11,17 L11,20 L12,21 L12,22 L14,24 L14,25 L21,25 L22,24 L22,23 L23,22 L23,19 L24,18 L24,17 L23,16 L23,9 L22,8 L22,5 L21,4 L21,1 L20,0 Z" fill="black" /></svg>